<svg width="98" height="37" viewBox="0 0 98 37" fill="none" xmlns="http://www.w3.org/2000/svg">
<path d="M24.47 32.28C23.42 32.73 22.31 33.075 21.14 33.315C19.97 33.585 18.755 33.72 17.495 33.72C15.095 33.72 12.86 33.285 10.79 32.415C8.75 31.545 6.98 30.36 5.48 28.86C3.98 27.33 2.795 25.545 1.925 23.505C1.085 21.435 0.665 19.23 0.665 16.89C0.665 14.55 1.085 12.36 1.925 10.32C2.795 8.25 3.98 6.465 5.48 4.965C6.98 3.435 8.75 2.235 10.79 1.365C12.86 0.494998 15.095 0.0599976 17.495 0.0599976C19.895 0.0599976 22.115 0.494998 24.155 1.365C26.225 2.235 28.01 3.435 29.51 4.965C31.01 6.465 32.18 8.25 33.02 10.32C33.89 12.36 34.325 14.55 34.325 16.89C34.325 19.38 33.86 21.69 32.93 23.82C32 25.95 30.695 27.78 29.015 29.31L31.49 33L26.99 36.015L24.47 32.28ZM17.63 22.02L22.13 18.96L25.64 24.27C26.45 23.34 27.08 22.26 27.53 21.03C28.01 19.77 28.25 18.39 28.25 16.89C28.25 15.24 27.965 13.74 27.395 12.39C26.855 11.01 26.09 9.84 25.1 8.88C24.14 7.92 23 7.17 21.68 6.63C20.39 6.09 18.995 5.82 17.495 5.82C15.995 5.82 14.585 6.09 13.265 6.63C11.975 7.17 10.835 7.92 9.845 8.88C8.885 9.84 8.12 11.01 7.55 12.39C7.01 13.74 6.74 15.24 6.74 16.89C6.74 18.54 7.01 20.055 7.55 21.435C8.12 22.785 8.885 23.94 9.845 24.9C10.835 25.86 11.975 26.61 13.265 27.15C14.585 27.69 15.995 27.96 17.495 27.96C18.155 27.96 18.785 27.9 19.385 27.78C19.985 27.66 20.57 27.495 21.14 27.285L17.63 22.02ZM53.777 30.12H53.417C52.727 31.23 51.797 32.115 50.627 32.775C49.457 33.405 48.122 33.72 46.622 33.72C43.832 33.72 41.747 32.865 40.367 31.155C39.017 29.445 38.342 27.165 38.342 24.315V10.95H44.237V23.595C44.237 25.185 44.582 26.37 45.272 27.15C45.992 27.9 47.027 28.275 48.377 28.275C49.187 28.275 49.892 28.11 50.492 27.78C51.122 27.42 51.647 26.955 52.067 26.385C52.517 25.785 52.847 25.095 53.057 24.315C53.297 23.505 53.417 22.65 53.417 21.75V10.95H59.312V33H53.777V30.12ZM74.5821 10.23C76.2921 10.23 77.8521 10.53 79.2621 11.13C80.7021 11.7 81.9321 12.51 82.9521 13.56C84.0021 14.58 84.8121 15.81 85.3821 17.25C85.9821 18.69 86.2821 20.265 86.2821 21.975C86.2821 23.685 85.9821 25.26 85.3821 26.7C84.8121 28.14 84.0021 29.385 82.9521 30.435C81.9321 31.455 80.7021 32.265 79.2621 32.865C77.8521 33.435 76.2921 33.72 74.5821 33.72C72.8721 33.72 71.2971 33.435 69.8571 32.865C68.4471 32.265 67.2171 31.455 66.1671 30.435C65.1471 29.385 64.3371 28.14 63.7371 26.7C63.1671 25.26 62.8821 23.685 62.8821 21.975C62.8821 20.265 63.1671 18.69 63.7371 17.25C64.3371 15.81 65.1471 14.58 66.1671 13.56C67.2171 12.51 68.4471 11.7 69.8571 11.13C71.2971 10.53 72.8721 10.23 74.5821 10.23ZM74.5821 28.275C75.3321 28.275 76.0521 28.14 76.7421 27.87C77.4621 27.57 78.0921 27.15 78.6321 26.61C79.1721 26.07 79.5921 25.41 79.8921 24.63C80.2221 23.85 80.3871 22.965 80.3871 21.975C80.3871 20.985 80.2221 20.1 79.8921 19.32C79.5921 18.54 79.1721 17.88 78.6321 17.34C78.0921 16.8 77.4621 16.395 76.7421 16.125C76.0521 15.825 75.3321 15.675 74.5821 15.675C73.8021 15.675 73.0671 15.825 72.3771 16.125C71.6871 16.395 71.0721 16.8 70.5321 17.34C69.9921 17.88 69.5571 18.54 69.2271 19.32C68.9271 20.1 68.7771 20.985 68.7771 21.975C68.7771 22.965 68.9271 23.85 69.2271 24.63C69.5571 25.41 69.9921 26.07 70.5321 26.61C71.0721 27.15 71.6871 27.57 72.3771 27.87C73.0671 28.14 73.8021 28.275 74.5821 28.275ZM93.6248 33.27C92.5448 33.27 91.6148 32.895 90.8348 32.145C90.0848 31.365 89.7098 30.435 89.7098 29.355C89.7098 28.275 90.0848 27.36 90.8348 26.61C91.6148 25.86 92.5448 25.485 93.6248 25.485C94.7048 25.485 95.6198 25.86 96.3698 26.61C97.1198 27.36 97.4948 28.275 97.4948 29.355C97.4948 30.435 97.1198 31.365 96.3698 32.145C95.6198 32.895 94.7048 33.27 93.6248 33.27Z" fill="#6C60FE"/>
</svg>
