<svg width="166" height="166" viewBox="0 0 166 166" fill="none" xmlns="http://www.w3.org/2000/svg">
<circle cx="82.5815" cy="82.6855" r="82.4716" fill="#8AAADC" fill-opacity="0.09"/>
<path d="M106.124 121.751H50.9674C48.5552 121.751 46.5999 119.796 46.5999 117.383V46.4646C46.5999 44.8931 47.8738 43.6191 49.4453 43.6191H115.057C116.629 43.6191 117.903 44.8931 117.903 46.4646V109.972C117.903 116.477 112.629 121.751 106.124 121.751V121.751Z" fill="url(#paint0_linear_2_3683)"/>
<path d="M117.903 64.5016L86.0824 96.3221L110.621 120.861C114.895 119.094 117.903 114.885 117.903 109.973V64.5016Z" fill="url(#paint1_linear_2_3683)"/>
<path d="M46.5999 52.6571H117.903V72.9003H46.5999V52.6571Z" fill="url(#paint2_linear_2_3683)"/>
<path d="M105.109 74.5603H56.4105C55.8215 74.5603 55.344 74.0828 55.344 73.4938V72.0394C55.344 71.4504 55.8215 70.9729 56.4105 70.9729H105.11C105.699 70.9729 106.176 71.4504 106.176 72.0394V73.4938C106.176 74.0828 105.698 74.5603 105.109 74.5603Z" fill="url(#paint3_linear_2_3683)"/>
<path d="M105.109 82.2456H56.4105C55.8215 82.2456 55.344 81.7681 55.344 81.1791V79.7247C55.344 79.1357 55.8215 78.6582 56.4105 78.6582H105.11C105.699 78.6582 106.176 79.1357 106.176 79.7247V81.1791C106.176 81.7681 105.698 82.2456 105.109 82.2456Z" fill="url(#paint4_linear_2_3683)"/>
<path d="M82.0673 89.9295H56.4105C55.8215 89.9295 55.344 89.4521 55.344 88.863V87.4087C55.344 86.8196 55.8215 86.3422 56.4105 86.3422H82.0673C82.6563 86.3422 83.1338 86.8196 83.1338 87.4087V88.863C83.1338 89.4519 82.6563 89.9295 82.0673 89.9295Z" fill="url(#paint5_linear_2_3683)"/>
<path d="M46.5999 101.458V117.384C46.5999 119.796 48.5553 121.751 50.9674 121.751H106.124C112.629 121.751 117.903 116.478 117.903 109.972V101.458H46.5999Z" fill="url(#paint6_linear_2_3683)"/>
<path d="M55.3348 107.878V117.384C55.3348 119.796 53.3795 121.751 50.9673 121.751H114.859C121.364 121.751 126.638 116.478 126.638 109.972V107.878C126.638 106.307 125.364 105.033 123.792 105.033H58.1804C56.6088 105.033 55.3348 106.307 55.3348 107.878V107.878Z" fill="url(#paint7_linear_2_3683)"/>
<path d="M55.3348 107.878V117.384C55.3348 119.796 53.3795 121.751 50.9673 121.751H114.859C121.364 121.751 126.638 116.478 126.638 109.972V107.878C126.638 106.307 125.364 105.033 123.792 105.033H58.1804C56.6088 105.033 55.3348 106.307 55.3348 107.878V107.878Z" fill="url(#paint8_linear_2_3683)"/>
<path d="M115.057 43.6191H49.4453C47.8738 43.6191 46.5999 44.8931 46.5999 46.4646V61.3562H117.903V46.4646C117.903 44.8931 116.629 43.6191 115.057 43.6191V43.6191Z" fill="url(#paint9_linear_2_3683)"/>
<path d="M131.064 51.9272L130.473 51.3358C129.329 50.1918 127.474 50.1918 126.33 51.3358L117.518 60.1477L122.252 64.882L131.064 56.07C132.208 54.926 132.208 53.0712 131.064 51.9272Z" fill="url(#paint10_linear_2_3683)"/>
<path d="M119.885 62.5143L122.252 64.8814L129.354 57.7796L126.987 55.4125L119.885 62.5143Z" fill="url(#paint11_linear_2_3683)"/>
<path d="M89.9247 96.1101L87.8669 96.6833C86.3522 97.1051 85.2945 96.0474 85.7164 94.5329L86.2896 92.4751C87.2486 89.0319 89.2871 85.6438 92.0806 82.8502L93.1306 81.8003L119.607 56.6616C120.491 55.7783 121.724 55.5792 122.362 56.2169L126.015 60.0377C126.653 60.6754 126.454 61.9088 125.571 62.7921L100.599 89.2696L99.5494 90.3191C96.7558 93.1127 93.3678 95.1512 89.9247 96.1101Z" fill="url(#paint12_linear_2_3683)"/>
<path d="M89.9247 96.1104L87.8669 96.6835C86.3522 97.1053 85.2945 96.0476 85.7164 94.5331L86.2896 92.4753C87.2486 89.0321 89.2871 85.644 92.0806 82.8504L93.1268 81.8043L97.3502 84.3548L100.596 89.2732L99.5495 90.3193C96.7558 93.1129 93.3678 95.1514 89.9247 96.1104Z" fill="url(#paint13_linear_2_3683)"/>
<path d="M127.317 59.8334L122.566 55.0828C121.816 54.3321 120.599 54.3321 119.848 55.0828L93.1268 81.8039L100.596 89.2728L127.317 62.5517C128.068 61.8012 128.068 60.5841 127.317 59.8334V59.8334Z" fill="url(#paint14_linear_2_3683)"/>
<path d="M127.521 60.0371L124.941 57.4575L107.882 74.517L111.616 78.2514L127.076 62.7915C127.96 61.9082 128.159 60.675 127.521 60.0371Z" fill="url(#paint15_linear_2_3683)"/>
<path d="M124.028 55.413L107.882 71.5593C107.065 72.3764 107.065 73.7011 107.882 74.518C108.699 75.3351 110.024 75.3351 110.841 74.518L126.987 58.3717C127.804 57.5546 127.804 56.2299 126.987 55.413C126.17 54.5959 124.845 54.5959 124.028 55.413V55.413Z" fill="url(#paint16_linear_2_3683)"/>
<defs>
<linearGradient id="paint0_linear_2_3683" x1="43.1727" y1="43.1607" x2="124.014" y2="124.002" gradientUnits="userSpaceOnUse">
<stop stop-color="#EEF4FF"/>
<stop offset="1" stop-color="#CFE7FD"/>
</linearGradient>
<linearGradient id="paint1_linear_2_3683" x1="117.802" y1="96.2216" x2="104.544" y2="82.9632" gradientUnits="userSpaceOnUse">
<stop stop-color="#8AAADC" stop-opacity="0"/>
<stop offset="1" stop-color="#8AAADC"/>
</linearGradient>
<linearGradient id="paint2_linear_2_3683" x1="82.2514" y1="71.3946" x2="82.2514" y2="60.8429" gradientUnits="userSpaceOnUse">
<stop stop-color="#8AAADC" stop-opacity="0"/>
<stop offset="1" stop-color="#8AAADC"/>
</linearGradient>
<linearGradient id="paint3_linear_2_3683" x1="55.344" y1="72.7667" x2="106.176" y2="72.7667" gradientUnits="userSpaceOnUse">
<stop stop-color="#5A5A5A"/>
<stop offset="1" stop-color="#464646"/>
</linearGradient>
<linearGradient id="paint4_linear_2_3683" x1="55.344" y1="80.4518" x2="106.176" y2="80.4518" gradientUnits="userSpaceOnUse">
<stop stop-color="#5A5A5A"/>
<stop offset="1" stop-color="#464646"/>
</linearGradient>
<linearGradient id="paint5_linear_2_3683" x1="55.344" y1="88.1358" x2="83.1338" y2="88.1358" gradientUnits="userSpaceOnUse">
<stop stop-color="#5A5A5A"/>
<stop offset="1" stop-color="#464646"/>
</linearGradient>
<linearGradient id="paint6_linear_2_3683" x1="82.2514" y1="102.309" x2="82.2514" y2="123.394" gradientUnits="userSpaceOnUse">
<stop stop-color="#8AAADC" stop-opacity="0"/>
<stop offset="1" stop-color="#8AAADC"/>
</linearGradient>
<linearGradient id="paint7_linear_2_3683" x1="88.8028" y1="105.033" x2="88.8028" y2="121.303" gradientUnits="userSpaceOnUse">
<stop stop-color="#EEF4FF"/>
<stop offset="1" stop-color="#CFE7FD"/>
</linearGradient>
<linearGradient id="paint8_linear_2_3683" x1="88.8028" y1="112.717" x2="88.8028" y2="124.28" gradientUnits="userSpaceOnUse">
<stop stop-color="#8AAADC" stop-opacity="0"/>
<stop offset="1" stop-color="#8AAADC"/>
</linearGradient>
<linearGradient id="paint9_linear_2_3683" x1="82.2514" y1="45.4628" x2="82.2514" y2="62.5272" gradientUnits="userSpaceOnUse">
<stop stop-color="#F7E07D"/>
<stop offset="1" stop-color="#E69642"/>
</linearGradient>
<linearGradient id="paint10_linear_2_3683" x1="124.805" y1="56.6248" x2="127.273" y2="59.0935" gradientUnits="userSpaceOnUse">
<stop stop-color="#F7E07D"/>
<stop offset="1" stop-color="#E69642"/>
</linearGradient>
<linearGradient id="paint11_linear_2_3683" x1="127.308" y1="62.8349" x2="123.041" y2="58.5687" gradientUnits="userSpaceOnUse">
<stop stop-color="#D52C1C" stop-opacity="0"/>
<stop offset="0.28" stop-color="#D12C1E" stop-opacity="0.28"/>
<stop offset="0.5735" stop-color="#C42C23" stop-opacity="0.574"/>
<stop offset="0.8721" stop-color="#AF2B2C" stop-opacity="0.872"/>
<stop offset="1" stop-color="#A42B31"/>
</linearGradient>
<linearGradient id="paint12_linear_2_3683" x1="101.307" y1="73.4364" x2="108.775" y2="80.9042" gradientUnits="userSpaceOnUse">
<stop stop-color="#EEF4FF"/>
<stop offset="1" stop-color="#CFE7FD"/>
</linearGradient>
<linearGradient id="paint13_linear_2_3683" x1="88.0215" y1="86.722" x2="95.4892" y2="94.1897" gradientUnits="userSpaceOnUse">
<stop stop-color="#8AAADC" stop-opacity="0"/>
<stop offset="1" stop-color="#8AAADC"/>
</linearGradient>
<linearGradient id="paint14_linear_2_3683" x1="107.186" y1="67.5572" x2="114.654" y2="75.0249" gradientUnits="userSpaceOnUse">
<stop stop-color="#DC4955"/>
<stop offset="1" stop-color="#C4237C"/>
</linearGradient>
<linearGradient id="paint15_linear_2_3683" x1="121.898" y1="71.4697" x2="118.175" y2="67.7473" gradientUnits="userSpaceOnUse">
<stop stop-color="#8A1958" stop-opacity="0"/>
<stop offset="1" stop-color="#8A1958"/>
</linearGradient>
<linearGradient id="paint16_linear_2_3683" x1="115.986" y1="63.5166" x2="118.167" y2="65.698" gradientUnits="userSpaceOnUse">
<stop stop-color="#EEF4FF"/>
<stop offset="1" stop-color="#CFE7FD"/>
</linearGradient>
</defs>
</svg>
