<svg width="166" height="166" viewBox="0 0 166 166" fill="none" xmlns="http://www.w3.org/2000/svg">
<circle cx="83.0592" cy="82.6855" r="82.4716" fill="#8AAADC" fill-opacity="0.09"/>
<path d="M108.991 127.24H57.1273C54.0959 127.24 51.6384 124.783 51.6384 121.751V43.6207C51.6384 40.5893 54.0959 38.1318 57.1273 38.1318H108.991C112.023 38.1318 114.48 40.5893 114.48 43.6207V121.752C114.48 124.783 112.023 127.24 108.991 127.24V127.24Z" fill="url(#paint0_linear_10_3691)"/>
<path d="M106.981 124.582H59.1369C56.3109 124.582 54.02 122.291 54.02 119.465V45.9066C54.02 43.0806 56.3109 40.7897 59.1369 40.7897H106.982C109.808 40.7897 112.099 43.0806 112.099 45.9066V119.466C112.098 122.291 109.808 124.582 106.981 124.582Z" fill="url(#paint1_linear_10_3691)"/>
<path d="M104.854 43.4492H92.0372C91.6495 43.4492 91.3351 43.7634 91.3351 44.1513C91.3351 45.2328 90.4584 46.1094 89.377 46.1094H76.7415C75.66 46.1094 74.7833 45.2328 74.7833 44.1513C74.7833 43.7636 74.4691 43.4492 74.0813 43.4492H61.2649C58.651 43.4492 56.5322 45.5682 56.5322 48.1819V117.189C56.5322 119.803 58.6511 121.922 61.2649 121.922H104.853C107.467 121.922 109.586 119.803 109.586 117.189V48.1819C109.586 45.5682 107.467 43.4492 104.854 43.4492V43.4492Z" fill="url(#paint2_linear_10_3691)"/>
<path d="M95.4901 112.971H70.6284C69.4314 112.971 68.461 112 68.461 110.803V106.979C68.461 105.782 69.4314 104.811 70.6284 104.811H95.4901C96.6871 104.811 97.6574 105.782 97.6574 106.979V110.803C97.6574 112 96.6871 112.971 95.4901 112.971Z" fill="url(#paint3_linear_10_3691)"/>
<path d="M80.789 39.3525L70.174 55.4359C68.9804 57.2445 70.2775 59.6546 72.4443 59.6546H77.4074V72.6532C77.4074 74.0996 78.5799 75.2719 80.0261 75.2719H86.0926C87.5389 75.2719 88.7113 74.0994 88.7113 72.6532V59.6546H93.6744C95.8414 59.6546 97.1384 57.2445 95.9447 55.4359L85.3295 39.3525C84.2543 37.7233 81.8642 37.7233 80.789 39.3525V39.3525Z" fill="url(#paint4_linear_10_3691)"/>
<path d="M83.0592 100.741C93.5157 100.741 101.992 92.2639 101.992 81.8074C101.992 71.3509 93.5157 62.8743 83.0592 62.8743C72.6028 62.8743 64.1261 71.3509 64.1261 81.8074C64.1261 92.2639 72.6028 100.741 83.0592 100.741Z" fill="url(#paint5_linear_10_3691)"/>
<path d="M83.0593 96.534C91.1921 96.534 97.785 89.941 97.785 81.8082C97.785 73.6754 91.1921 67.0824 83.0593 67.0824C74.9265 67.0824 68.3335 73.6754 68.3335 81.8082C68.3335 89.941 74.9265 96.534 83.0593 96.534Z" fill="url(#paint6_linear_10_3691)"/>
<path d="M101.536 85.9535L89.1579 73.5755C88.5218 72.6198 86.8182 72.2285 85.4347 72.0872C85.3351 71.9579 84.3991 71.0612 84.3433 70.9923C84.1544 70.7598 83.7937 70.589 83.4324 70.589C82.826 70.589 82.3848 70.9474 82.3848 71.3333V72.1052C79.4626 72.5186 76.8712 74.2002 76.8712 77.7013C76.8712 79.3736 77.5404 80.5189 78.5138 81.3646C78.5138 81.3646 82.3519 85.2115 82.3848 85.2474V87.8463C80.3448 87.4879 79.4075 85.8613 78.2495 85.8613C77.2019 85.8613 76.3749 87.2396 76.3749 88.1769C76.3749 88.8625 76.7842 89.5393 77.4771 90.1177L87.5606 100.201C94.5192 98.5043 99.9702 92.9626 101.536 85.9535V85.9535Z" fill="url(#paint7_linear_10_3691)"/>
<path d="M84.3962 79.6023V75.5774C86.1882 75.7153 86.712 76.5975 87.6216 76.5975C88.8346 76.5975 89.3307 75.0813 89.3307 74.337C89.3307 72.4348 86.1052 71.9936 84.3961 71.9386V71.2493C84.3961 70.8634 83.8722 70.505 83.3484 70.505C82.742 70.505 82.3008 70.8634 82.3008 71.2493V72.0212C79.3786 72.4347 76.7872 74.1163 76.7872 77.6174C76.7872 81.146 79.7645 82.3313 82.3008 83.2963V87.7623C80.2608 87.4039 79.3235 85.7774 78.1655 85.7774C77.1179 85.7774 76.291 87.1557 76.291 88.0929C76.291 89.8574 78.9927 91.5665 82.3008 91.6767V92.3659C82.3008 92.7518 82.7418 93.1102 83.3484 93.1102C83.8722 93.1102 84.3961 92.7518 84.3961 92.3659V91.5665C87.6214 91.0427 89.827 88.9751 89.827 85.5569C89.8272 81.8351 86.9048 80.5394 84.3962 79.6023V79.6023ZM82.5768 78.9406C81.5291 78.4996 80.8123 78.0033 80.8123 77.2039C80.8123 76.5422 81.3362 75.9082 82.5768 75.6602V78.9406ZM84.1207 87.7345V84.0405C85.113 84.509 85.8021 85.0881 85.8021 85.9979C85.8023 86.9902 85.0578 87.514 84.1207 87.7345Z" fill="url(#paint8_linear_10_3691)"/>
<path d="M51.6384 112.833V121.751C51.6384 124.782 54.0959 127.24 57.1273 127.24H108.991C112.023 127.24 114.48 124.782 114.48 121.751V112.833H51.6384Z" fill="url(#paint9_linear_10_3691)"/>
<defs>
<linearGradient id="paint0_linear_10_3691" x1="58.5404" y1="58.1673" x2="115.435" y2="115.062" gradientUnits="userSpaceOnUse">
<stop stop-color="#537983"/>
<stop offset="1" stop-color="#3E5959"/>
</linearGradient>
<linearGradient id="paint1_linear_10_3691" x1="112.468" y1="112.095" x2="31.195" y2="30.8217" gradientUnits="userSpaceOnUse">
<stop stop-color="#537983"/>
<stop offset="1" stop-color="#3E5959"/>
</linearGradient>
<linearGradient id="paint2_linear_10_3691" x1="68.1332" y1="67.7596" x2="113.8" y2="113.426" gradientUnits="userSpaceOnUse">
<stop stop-color="#EEF5F6"/>
<stop offset="1" stop-color="#CBE5E8"/>
</linearGradient>
<linearGradient id="paint3_linear_10_3691" x1="83.0592" y1="102.644" x2="83.0592" y2="115.521" gradientUnits="userSpaceOnUse">
<stop stop-color="#C1E9AF"/>
<stop offset="1" stop-color="#4FC123"/>
</linearGradient>
<linearGradient id="paint4_linear_10_3691" x1="73.9186" y1="49.0551" x2="88.7256" y2="63.8619" gradientUnits="userSpaceOnUse">
<stop stop-color="#FE99A0"/>
<stop offset="1" stop-color="#FD4755"/>
</linearGradient>
<linearGradient id="paint5_linear_10_3691" x1="73.497" y1="72.2454" x2="94.9301" y2="93.6783" gradientUnits="userSpaceOnUse">
<stop stop-color="#FFE177"/>
<stop offset="1" stop-color="#FE9738"/>
</linearGradient>
<linearGradient id="paint6_linear_10_3691" x1="90.4966" y1="89.2455" x2="73.8264" y2="72.5755" gradientUnits="userSpaceOnUse">
<stop stop-color="#FFE177"/>
<stop offset="1" stop-color="#FE9738"/>
</linearGradient>
<linearGradient id="paint7_linear_10_3691" x1="95.1446" y1="89.9128" x2="77.837" y2="81.6894" gradientUnits="userSpaceOnUse">
<stop stop-color="#FE9738" stop-opacity="0"/>
<stop offset="1" stop-color="#F46700"/>
</linearGradient>
<linearGradient id="paint8_linear_10_3691" x1="79.3088" y1="77.8254" x2="88.0672" y2="86.5838" gradientUnits="userSpaceOnUse">
<stop stop-color="#FE9738"/>
<stop offset="1" stop-color="#F46700"/>
</linearGradient>
<linearGradient id="paint9_linear_10_3691" x1="83.0592" y1="118.153" x2="83.0592" y2="127.685" gradientUnits="userSpaceOnUse">
<stop stop-color="#3E5959" stop-opacity="0"/>
<stop offset="1" stop-color="#384949"/>
</linearGradient>
</defs>
</svg>
