<svg width="780" height="519" viewBox="0 0 780 519" fill="none" xmlns="http://www.w3.org/2000/svg">
<g filter="url(#filter0_d_34_3694)">
<rect x="7.72803" y="5.28516" width="639.306" height="491.72" rx="20" fill="white"/>
</g>
<line x1="64.196" y1="448.557" x2="64.196" y2="186.462" stroke="black" stroke-opacity="0.03"/>
<line x1="124.175" y1="448.557" x2="124.175" y2="186.462" stroke="black" stroke-opacity="0.03"/>
<line x1="184.155" y1="448.557" x2="184.155" y2="186.462" stroke="black" stroke-opacity="0.03"/>
<line x1="244.134" y1="448.557" x2="244.134" y2="186.462" stroke="black" stroke-opacity="0.03"/>
<line x1="304.114" y1="448.557" x2="304.114" y2="186.462" stroke="black" stroke-opacity="0.03"/>
<line x1="364.093" y1="448.557" x2="364.093" y2="186.462" stroke="black" stroke-opacity="0.03"/>
<line x1="424.072" y1="448.557" x2="424.072" y2="186.462" stroke="black" stroke-opacity="0.03"/>
<line x1="484.052" y1="448.557" x2="484.052" y2="186.462" stroke="black" stroke-opacity="0.03"/>
<line x1="544.031" y1="448.557" x2="544.031" y2="186.462" stroke="black" stroke-opacity="0.03"/>
<line x1="604.01" y1="448.557" x2="604.01" y2="186.462" stroke="black" stroke-opacity="0.03"/>
<path d="M220.772 320.106C163.331 291.386 95.4384 361.467 64.4336 400.087V444.873H608.202V201.127C601.131 215.27 582.385 238.515 560.192 225.46C532.451 209.142 472.074 307.052 432.91 287.469C393.746 267.887 375.796 267.887 351.318 287.469C326.841 307.051 292.572 356.007 220.772 320.106Z" fill="url(#paint0_linear_34_3694)"/>
<path d="M56.6724 59.5698H58.9062L62.9224 73.7056L67.207 60.522H68.916L73.1885 73.7056L77.2046 59.5698H79.4385L74.397 76.8184H72.2729L68.0615 63.9155L63.8501 76.8184H61.7139L56.6724 59.5698ZM86.1523 77.0259C84.9072 77.0259 83.8452 76.7492 82.9663 76.1958C82.0874 75.6424 81.4242 74.8937 80.9766 73.9497C80.529 72.9976 80.3052 71.9396 80.3052 70.7759C80.3052 69.6284 80.5208 68.5705 80.9521 67.6021C81.3835 66.6336 82.0223 65.8605 82.8687 65.2827C83.7231 64.7049 84.7485 64.416 85.9448 64.416C87.2225 64.416 88.2642 64.709 89.0698 65.2949C89.8836 65.8809 90.4696 66.6174 90.8276 67.5044C91.1857 68.3833 91.3647 69.2866 91.3647 70.2144C91.3647 70.4341 91.3525 70.6538 91.3281 70.8735C91.3118 71.0851 91.2915 71.2397 91.2671 71.3374H82.4902C82.5716 72.5337 82.9215 73.4696 83.54 74.145C84.1667 74.8123 85.0415 75.146 86.1646 75.146C86.8481 75.146 87.4544 75.0361 87.9834 74.8164C88.5124 74.5885 89.0251 74.2101 89.5215 73.6812L90.9619 74.9385C90.2865 75.6628 89.5622 76.1917 88.7891 76.5254C88.0241 76.859 87.1452 77.0259 86.1523 77.0259ZM89.314 69.8237C89.314 69.4738 89.2977 69.2174 89.2651 69.0547C89.1919 68.5257 89.0169 68.0456 88.7402 67.6143C88.4717 67.1748 88.0973 66.8249 87.6172 66.5645C87.1452 66.2959 86.5837 66.1616 85.9326 66.1616C84.9316 66.1616 84.1382 66.4953 83.5522 67.1626C82.9663 67.8218 82.6123 68.7088 82.4902 69.8237H89.314ZM99.2383 77.0259C97.9932 77.0259 96.9312 76.7492 96.0522 76.1958C95.1733 75.6424 94.5101 74.8937 94.0625 73.9497C93.6149 72.9976 93.3911 71.9396 93.3911 70.7759C93.3911 69.6284 93.6068 68.5705 94.0381 67.6021C94.4694 66.6336 95.1082 65.8605 95.9546 65.2827C96.8091 64.7049 97.8345 64.416 99.0308 64.416C100.308 64.416 101.35 64.709 102.156 65.2949C102.97 65.8809 103.556 66.6174 103.914 67.5044C104.272 68.3833 104.451 69.2866 104.451 70.2144C104.451 70.4341 104.438 70.6538 104.414 70.8735C104.398 71.0851 104.377 71.2397 104.353 71.3374H95.5762C95.6576 72.5337 96.0075 73.4696 96.626 74.145C97.2526 74.8123 98.1274 75.146 99.2505 75.146C99.9341 75.146 100.54 75.0361 101.069 74.8164C101.598 74.5885 102.111 74.2101 102.607 73.6812L104.048 74.9385C103.372 75.6628 102.648 76.1917 101.875 76.5254C101.11 76.859 100.231 77.0259 99.2383 77.0259ZM102.4 69.8237C102.4 69.4738 102.384 69.2174 102.351 69.0547C102.278 68.5257 102.103 68.0456 101.826 67.6143C101.558 67.1748 101.183 66.8249 100.703 66.5645C100.231 66.2959 99.6696 66.1616 99.0186 66.1616C98.0176 66.1616 97.2241 66.4953 96.6382 67.1626C96.0522 67.8218 95.6982 68.7088 95.5762 69.8237H102.4ZM107.515 59.5698H109.578V70.7393L115.303 64.6235H118L113.521 69.2378L118.635 76.8184H116.194L112.117 70.5195L109.578 73.2173V76.8184H107.515V59.5698ZM123.201 77.0259C122.387 77.0259 121.789 76.8062 121.406 76.3667C121.032 75.9191 120.845 75.2274 120.845 74.2915V59.5698H122.92V73.7422C122.92 74.1979 123.005 74.5479 123.176 74.792C123.347 75.0361 123.665 75.1582 124.128 75.1582C124.381 75.1582 124.694 75.1257 125.068 75.0605L125.081 76.8062C124.405 76.9526 123.778 77.0259 123.201 77.0259ZM130.989 76.6108L125.935 64.6235H128.218L132.087 74.2183L135.627 64.6235H137.898L131.111 82.0552H128.853L130.989 76.6108ZM147.017 59.5698H152.095C153.201 59.5698 154.194 59.7651 155.073 60.1558C155.96 60.5382 156.656 61.0998 157.161 61.8403C157.665 62.5728 157.917 63.4476 157.917 64.4648C157.917 65.5798 157.596 66.5278 156.953 67.3091C156.31 68.0903 155.444 68.6315 154.353 68.9326L159.138 76.8184H156.685L152.266 69.1401C152.038 69.1564 151.672 69.1646 151.167 69.1646H149.165V76.8184H147.017V59.5698ZM152.278 67.4067C153.393 67.3742 154.255 67.1056 154.866 66.6011C155.476 66.0965 155.781 65.3966 155.781 64.5015C155.781 63.5656 155.456 62.8332 154.805 62.3042C154.154 61.7671 153.254 61.4985 152.107 61.4985H149.189V67.4067H152.278ZM166.377 77.0259C165.132 77.0259 164.07 76.7492 163.191 76.1958C162.312 75.6424 161.649 74.8937 161.201 73.9497C160.754 72.9976 160.53 71.9396 160.53 70.7759C160.53 69.6284 160.745 68.5705 161.177 67.6021C161.608 66.6336 162.247 65.8605 163.093 65.2827C163.948 64.7049 164.973 64.416 166.169 64.416C167.447 64.416 168.489 64.709 169.294 65.2949C170.108 65.8809 170.694 66.6174 171.052 67.5044C171.41 68.3833 171.589 69.2866 171.589 70.2144C171.589 70.4341 171.577 70.6538 171.553 70.8735C171.536 71.0851 171.516 71.2397 171.492 71.3374H162.715C162.796 72.5337 163.146 73.4696 163.765 74.145C164.391 74.8123 165.266 75.146 166.389 75.146C167.073 75.146 167.679 75.0361 168.208 74.8164C168.737 74.5885 169.25 74.2101 169.746 73.6812L171.187 74.9385C170.511 75.6628 169.787 76.1917 169.014 76.5254C168.249 76.859 167.37 77.0259 166.377 77.0259ZM169.539 69.8237C169.539 69.4738 169.522 69.2174 169.49 69.0547C169.417 68.5257 169.242 68.0456 168.965 67.6143C168.696 67.1748 168.322 66.8249 167.842 66.5645C167.37 66.2959 166.808 66.1616 166.157 66.1616C165.156 66.1616 164.363 66.4953 163.777 67.1626C163.191 67.8218 162.837 68.7088 162.715 69.8237H169.539ZM174.653 64.6235H176.79V66.8208C177.18 66.064 177.738 65.474 178.462 65.0508C179.194 64.6276 179.996 64.416 180.867 64.416C181.933 64.416 182.856 64.7008 183.638 65.2705C184.419 65.832 185.013 66.5929 185.42 67.5532C185.835 68.5054 186.042 69.5633 186.042 70.7271C186.042 71.8908 185.835 72.9528 185.42 73.9131C185.013 74.8652 184.415 75.6221 183.625 76.1836C182.844 76.7451 181.912 77.0259 180.83 77.0259C179.959 77.0259 179.166 76.8184 178.45 76.4033C177.734 75.9801 177.18 75.3861 176.79 74.6211V81.8721H174.653V64.6235ZM180.366 75.146C181.139 75.146 181.794 74.9548 182.332 74.5723C182.877 74.1816 183.284 73.6527 183.552 72.9854C183.829 72.318 183.967 71.5653 183.967 70.7271C183.967 69.8888 183.829 69.1401 183.552 68.481C183.284 67.8136 182.877 67.2887 182.332 66.9062C181.794 66.5238 181.139 66.3325 180.366 66.3325C179.593 66.3325 178.922 66.5238 178.352 66.9062C177.782 67.2806 177.347 67.8014 177.046 68.4688C176.753 69.1279 176.606 69.8807 176.606 70.7271C176.606 71.5653 176.757 72.3221 177.058 72.9976C177.359 73.6649 177.791 74.1898 178.352 74.5723C178.922 74.9548 179.593 75.146 180.366 75.146ZM194.087 77.0259C192.923 77.0259 191.886 76.7451 190.974 76.1836C190.063 75.6139 189.351 74.849 188.838 73.8887C188.333 72.9202 188.081 71.8542 188.081 70.6904C188.081 69.5348 188.333 68.481 188.838 67.5288C189.351 66.5685 190.063 65.8117 190.974 65.2583C191.886 64.6968 192.923 64.416 194.087 64.416C195.251 64.416 196.288 64.6968 197.2 65.2583C198.119 65.8117 198.835 66.5685 199.348 67.5288C199.861 68.4891 200.117 69.543 200.117 70.6904C200.117 71.8542 199.861 72.9202 199.348 73.8887C198.835 74.849 198.119 75.6139 197.2 76.1836C196.288 76.7451 195.251 77.0259 194.087 77.0259ZM194.087 75.2314C194.901 75.2314 195.601 75.028 196.187 74.6211C196.772 74.2142 197.216 73.6689 197.517 72.9854C197.818 72.2936 197.969 71.5286 197.969 70.6904C197.969 69.8604 197.818 69.1076 197.517 68.4321C197.216 67.7485 196.772 67.2074 196.187 66.8086C195.601 66.4098 194.901 66.2104 194.087 66.2104C193.281 66.2104 192.585 66.4098 192 66.8086C191.422 67.1992 190.982 67.7363 190.681 68.4199C190.38 69.0954 190.229 69.8522 190.229 70.6904C190.229 71.5286 190.38 72.2936 190.681 72.9854C190.982 73.6771 191.422 74.2264 192 74.6333C192.585 75.0321 193.281 75.2314 194.087 75.2314ZM203.145 64.6235H205.159V67.0161C205.346 66.4546 205.631 65.9785 206.013 65.5879C206.396 65.1973 206.823 64.9043 207.295 64.709C207.775 64.5137 208.263 64.416 208.76 64.416C209.134 64.416 209.496 64.473 209.846 64.5869C210.196 64.6927 210.505 64.8595 210.774 65.0874L209.822 66.7964C209.382 66.5522 208.927 66.4302 208.455 66.4302C207.901 66.4302 207.372 66.5889 206.868 66.9062C206.363 67.2236 205.948 67.7241 205.623 68.4077C205.305 69.0832 205.146 69.9295 205.146 70.9468V76.8184H203.145V64.6235ZM217.402 77.0259C216.287 77.0259 215.429 76.7126 214.827 76.0859C214.224 75.4512 213.923 74.5601 213.923 73.4126V66.3691H211.909V64.6235H213.948V61.2544L215.986 59.7651V64.6235H219.282V66.3691H215.986V73.0708C215.986 73.8195 216.133 74.3607 216.426 74.6943C216.727 75.028 217.17 75.1948 217.756 75.1948C218.017 75.1948 218.281 75.1623 218.55 75.0972C218.826 75.0239 219.067 74.9425 219.27 74.853L219.282 76.7329C219.071 76.8143 218.794 76.8835 218.452 76.9404C218.11 76.9974 217.76 77.0259 217.402 77.0259Z" fill="black" fill-opacity="0.5"/>
<path d="M58.7988 112.12H65.6689C66.8213 112.12 67.8857 112.311 68.8623 112.691C69.8486 113.062 70.6445 113.658 71.25 114.479C71.8555 115.299 72.1582 116.344 72.1582 117.613C72.1582 118.238 72.0459 118.834 71.8213 119.4C71.5967 119.957 71.2939 120.44 70.9131 120.851C70.542 121.261 70.1318 121.573 69.6826 121.788C70.3467 122.013 70.9424 122.389 71.4697 122.916C72.0068 123.443 72.4219 124.059 72.7148 124.762C73.0176 125.455 73.1689 126.173 73.1689 126.915C73.1689 128.136 72.8662 129.195 72.2607 130.094C71.665 130.982 70.8594 131.661 69.8438 132.13C68.8281 132.589 67.7051 132.818 66.4746 132.818H58.7988V112.12ZM66.123 120.704C67.0312 120.704 67.7783 120.47 68.3643 120.001C68.96 119.532 69.2578 118.795 69.2578 117.789C69.2578 116.881 68.9355 116.183 68.291 115.694C67.6562 115.206 66.8018 114.962 65.7275 114.962H61.9482V120.704H66.123ZM66.5186 129.815C67.6709 129.815 68.5498 129.547 69.1553 129.01C69.7705 128.463 70.0781 127.647 70.0781 126.563C70.0781 125.968 69.9365 125.436 69.6533 124.967C69.3701 124.488 68.9648 124.112 68.4375 123.839C67.9102 123.565 67.2949 123.429 66.5918 123.429H61.9482V129.815H66.5186ZM82.0459 117.906C83.3252 117.906 84.4287 118.155 85.3564 118.653C86.2842 119.151 86.9922 119.854 87.4805 120.763C87.9688 121.661 88.2129 122.711 88.2129 123.912V132.818H85.708L85.5029 130.533C85.0342 131.354 84.3555 131.988 83.4668 132.438C82.5879 132.877 81.665 133.097 80.6982 133.097C79.6924 133.097 78.7939 132.911 78.0029 132.54C77.2119 132.169 76.5918 131.632 76.1426 130.929C75.6934 130.216 75.4688 129.376 75.4688 128.409C75.4688 126.925 75.9961 125.851 77.0508 125.187C78.1055 124.522 79.5508 124.19 81.3867 124.19H85.459C85.4395 123.321 85.3223 122.628 85.1074 122.11C84.8926 121.583 84.541 121.192 84.0527 120.938C83.5742 120.685 82.9102 120.558 82.0605 120.558C81.2305 120.558 80.5029 120.753 79.8779 121.144C79.2627 121.534 78.7549 122.062 78.3545 122.726L76.04 121.056C76.7822 120.03 77.6318 119.249 78.5889 118.712C79.5557 118.175 80.708 117.906 82.0459 117.906ZM81.2988 130.519C82.0605 130.519 82.7344 130.353 83.3203 130.021C83.916 129.688 84.3945 129.244 84.7559 128.688C85.1172 128.131 85.3516 127.516 85.459 126.842V126.388H81.5625C80.5859 126.388 79.8438 126.583 79.3359 126.974C78.8281 127.354 78.5742 127.862 78.5742 128.497C78.5742 129.112 78.8086 129.605 79.2773 129.977C79.7461 130.338 80.4199 130.519 81.2988 130.519ZM95.2441 133.097C94.2871 133.097 93.5547 132.848 93.0469 132.35C92.5488 131.842 92.2998 131.007 92.2998 129.845V112.12H95.3174V129.024C95.3174 129.464 95.4199 129.801 95.625 130.035C95.8301 130.26 96.167 130.372 96.6357 130.372C96.8799 130.372 97.2314 130.338 97.6904 130.27L97.7051 132.818C96.7969 133.004 95.9766 133.097 95.2441 133.097ZM105.835 117.906C107.114 117.906 108.218 118.155 109.146 118.653C110.073 119.151 110.781 119.854 111.27 120.763C111.758 121.661 112.002 122.711 112.002 123.912V132.818H109.497L109.292 130.533C108.823 131.354 108.145 131.988 107.256 132.438C106.377 132.877 105.454 133.097 104.487 133.097C103.481 133.097 102.583 132.911 101.792 132.54C101.001 132.169 100.381 131.632 99.9316 130.929C99.4824 130.216 99.2578 129.376 99.2578 128.409C99.2578 126.925 99.7852 125.851 100.84 125.187C101.895 124.522 103.34 124.19 105.176 124.19H109.248C109.229 123.321 109.111 122.628 108.896 122.11C108.682 121.583 108.33 121.192 107.842 120.938C107.363 120.685 106.699 120.558 105.85 120.558C105.02 120.558 104.292 120.753 103.667 121.144C103.052 121.534 102.544 122.062 102.144 122.726L99.8291 121.056C100.571 120.03 101.421 119.249 102.378 118.712C103.345 118.175 104.497 117.906 105.835 117.906ZM105.088 130.519C105.85 130.519 106.523 130.353 107.109 130.021C107.705 129.688 108.184 129.244 108.545 128.688C108.906 128.131 109.141 127.516 109.248 126.842V126.388H105.352C104.375 126.388 103.633 126.583 103.125 126.974C102.617 127.354 102.363 127.862 102.363 128.497C102.363 129.112 102.598 129.605 103.066 129.977C103.535 130.338 104.209 130.519 105.088 130.519ZM116.177 118.185H119.194V120.147C119.712 119.405 120.361 118.849 121.143 118.478C121.924 118.097 122.739 117.906 123.589 117.906C124.761 117.906 125.737 118.18 126.519 118.727C127.31 119.273 127.891 119.996 128.262 120.895C128.633 121.793 128.823 122.784 128.833 123.868V132.818H125.815V124.322C125.815 123.219 125.547 122.34 125.01 121.686C124.482 121.031 123.726 120.704 122.739 120.704C121.626 120.704 120.757 121.031 120.132 121.686C119.507 122.34 119.194 123.312 119.194 124.601V132.818H116.177V118.185ZM138.677 133.097C137.212 133.097 135.957 132.75 134.912 132.057C133.867 131.363 133.081 130.44 132.554 129.288C132.026 128.136 131.763 126.881 131.763 125.523C131.763 124.195 132.021 122.95 132.539 121.788C133.057 120.626 133.833 119.688 134.868 118.976C135.913 118.263 137.173 117.906 138.647 117.906C140.083 117.906 141.338 118.263 142.412 118.976C143.486 119.688 144.292 120.738 144.829 122.125L141.958 123.238C141.704 122.457 141.284 121.832 140.698 121.363C140.112 120.895 139.429 120.66 138.647 120.66C137.788 120.66 137.07 120.89 136.494 121.349C135.928 121.798 135.508 122.394 135.234 123.136C134.971 123.868 134.839 124.664 134.839 125.523C134.839 126.393 134.971 127.193 135.234 127.926C135.508 128.658 135.928 129.244 136.494 129.684C137.07 130.123 137.788 130.343 138.647 130.343C139.438 130.343 140.122 130.113 140.698 129.654C141.284 129.195 141.694 128.58 141.929 127.809L144.683 128.849C144.204 130.187 143.438 131.231 142.383 131.983C141.328 132.726 140.093 133.097 138.677 133.097ZM153.604 133.097C152.051 133.097 150.732 132.76 149.648 132.086C148.564 131.402 147.749 130.489 147.202 129.347C146.655 128.204 146.382 126.944 146.382 125.567C146.382 124.21 146.641 122.95 147.158 121.788C147.686 120.616 148.472 119.679 149.517 118.976C150.571 118.263 151.851 117.906 153.354 117.906C154.927 117.906 156.206 118.268 157.192 118.99C158.188 119.703 158.901 120.606 159.331 121.7C159.771 122.794 159.99 123.922 159.99 125.084C159.99 125.357 159.976 125.626 159.946 125.89C159.927 126.153 159.902 126.339 159.873 126.446H149.575C149.712 127.677 150.112 128.634 150.776 129.317C151.45 130.001 152.397 130.343 153.618 130.343C154.37 130.343 155.049 130.216 155.654 129.962C156.27 129.708 156.851 129.283 157.397 128.688L159.478 130.519C158.667 131.397 157.783 132.047 156.826 132.467C155.879 132.887 154.805 133.097 153.604 133.097ZM157.002 124.249C157.021 123.927 156.992 123.619 156.914 123.326C156.758 122.467 156.367 121.773 155.742 121.246C155.117 120.719 154.312 120.455 153.325 120.455C152.231 120.455 151.372 120.797 150.747 121.48C150.132 122.164 149.741 123.087 149.575 124.249H157.002ZM171.665 118.844H174.961V122.491H171.665V118.844ZM171.665 129.156H174.961V132.818H171.665V129.156ZM201.182 126.9C201.182 128.053 200.908 129.073 200.361 129.962C199.814 130.851 199.062 131.559 198.105 132.086C197.158 132.604 196.089 132.911 194.897 133.009V136.627L193.594 136.656V133.023C192.432 132.955 191.348 132.687 190.342 132.218C189.336 131.739 188.486 131.065 187.793 130.196C187.109 129.327 186.67 128.292 186.475 127.091L189.595 126.3C189.731 127.481 190.156 128.404 190.869 129.068C191.592 129.723 192.5 130.104 193.594 130.211V123.297C192.344 122.809 191.338 122.354 190.576 121.935C189.814 121.515 189.16 120.938 188.613 120.206C188.076 119.464 187.808 118.531 187.808 117.408C187.808 116.324 188.062 115.372 188.569 114.552C189.087 113.731 189.785 113.092 190.664 112.633C191.543 112.174 192.52 111.915 193.594 111.856V108.517H194.897V111.886C196.03 112.003 197.046 112.35 197.944 112.926C198.853 113.502 199.604 114.317 200.2 115.372L197.593 116.983C197.28 116.388 196.895 115.899 196.436 115.519C195.977 115.138 195.464 114.879 194.897 114.742V120.646C196.284 121.183 197.378 121.661 198.179 122.081C198.989 122.501 199.692 123.106 200.288 123.897C200.884 124.679 201.182 125.68 201.182 126.9ZM190.957 117.247C190.957 117.901 191.182 118.448 191.631 118.888C192.09 119.327 192.744 119.732 193.594 120.104V114.654C192.822 114.732 192.188 115.011 191.689 115.489C191.201 115.958 190.957 116.544 190.957 117.247ZM194.897 130.196C195.874 130.089 196.641 129.757 197.197 129.2C197.754 128.644 198.032 127.97 198.032 127.179C198.032 126.388 197.764 125.743 197.227 125.245C196.689 124.737 195.913 124.264 194.897 123.824V130.196ZM213.823 112.12V132.818H210.732V117.789H205.781V115.387H208.784C209.468 115.387 209.98 115.24 210.322 114.947C210.674 114.654 210.85 114.19 210.85 113.556V112.12H213.823ZM228.486 118.727C229.746 118.727 230.903 119.044 231.958 119.679C233.022 120.313 233.862 121.178 234.478 122.271C235.103 123.355 235.415 124.537 235.415 125.816C235.415 127.105 235.078 128.312 234.404 129.435C233.73 130.548 232.822 131.437 231.68 132.101C230.537 132.765 229.302 133.097 227.974 133.097C226.782 133.097 225.674 132.828 224.648 132.291C223.633 131.744 222.773 131.002 222.07 130.064C221.377 129.127 220.903 128.077 220.649 126.915L223.579 126.109C223.823 127.291 224.312 128.277 225.044 129.068C225.776 129.85 226.753 130.24 227.974 130.24C228.774 130.24 229.497 130.035 230.142 129.625C230.786 129.205 231.289 128.653 231.65 127.97C232.021 127.286 232.207 126.559 232.207 125.787C232.207 125.006 232.036 124.293 231.694 123.648C231.362 123.004 230.879 122.496 230.244 122.125C229.609 121.744 228.872 121.554 228.032 121.554C227.28 121.554 226.558 121.744 225.864 122.125C225.171 122.496 224.604 123.014 224.165 123.678L221.265 122.931L223.242 112.12H234.463V115.021H225.732L224.839 119.811C226.001 119.088 227.217 118.727 228.486 118.727ZM241.069 128.951H244.541L240.762 137.315H238.726L241.069 128.951ZM255.029 118.727C256.289 118.727 257.446 119.044 258.501 119.679C259.565 120.313 260.405 121.178 261.021 122.271C261.646 123.355 261.958 124.537 261.958 125.816C261.958 127.105 261.621 128.312 260.947 129.435C260.273 130.548 259.365 131.437 258.223 132.101C257.08 132.765 255.845 133.097 254.517 133.097C253.325 133.097 252.217 132.828 251.191 132.291C250.176 131.744 249.316 131.002 248.613 130.064C247.92 129.127 247.446 128.077 247.192 126.915L250.122 126.109C250.366 127.291 250.854 128.277 251.587 129.068C252.319 129.85 253.296 130.24 254.517 130.24C255.317 130.24 256.04 130.035 256.685 129.625C257.329 129.205 257.832 128.653 258.193 127.97C258.564 127.286 258.75 126.559 258.75 125.787C258.75 125.006 258.579 124.293 258.237 123.648C257.905 123.004 257.422 122.496 256.787 122.125C256.152 121.744 255.415 121.554 254.575 121.554C253.823 121.554 253.101 121.744 252.407 122.125C251.714 122.496 251.147 123.014 250.708 123.678L247.808 122.931L249.785 112.12H261.006V115.021H252.275L251.382 119.811C252.544 119.088 253.76 118.727 255.029 118.727ZM274.116 119.298C275.083 119.581 275.952 120.05 276.724 120.704C277.495 121.358 278.101 122.145 278.54 123.062C278.989 123.971 279.214 124.947 279.214 125.992C279.214 127.271 278.882 128.458 278.218 129.552C277.563 130.636 276.67 131.5 275.537 132.145C274.414 132.779 273.188 133.097 271.86 133.097C270.522 133.097 269.287 132.779 268.154 132.145C267.031 131.5 266.138 130.636 265.474 129.552C264.81 128.468 264.478 127.291 264.478 126.021C264.478 124.723 264.854 123.458 265.605 122.228L271.802 112.12H275.391L271.069 119.063C271.44 119.015 271.777 118.99 272.08 118.99C272.783 118.99 273.462 119.093 274.116 119.298ZM271.86 130.167C272.642 130.167 273.359 129.981 274.014 129.61C274.668 129.229 275.186 128.717 275.566 128.072C275.947 127.428 276.138 126.729 276.138 125.978C276.138 125.226 275.947 124.532 275.566 123.897C275.186 123.253 274.668 122.745 274.014 122.374C273.359 121.993 272.642 121.803 271.86 121.803C271.079 121.803 270.356 121.993 269.692 122.374C269.038 122.745 268.516 123.253 268.125 123.897C267.744 124.542 267.554 125.24 267.554 125.992C267.554 126.744 267.744 127.442 268.125 128.087C268.516 128.722 269.038 129.229 269.692 129.61C270.356 129.981 271.079 130.167 271.86 130.167ZM289.175 133.097C286.382 133.097 284.478 132.057 283.462 129.977C282.446 127.887 281.938 125.382 281.938 122.462C281.938 119.532 282.427 117.027 283.403 114.947C284.39 112.857 286.245 111.812 288.97 111.812C290.718 111.812 292.129 112.32 293.203 113.336C294.277 114.342 295.044 115.65 295.503 117.262C295.962 118.863 296.191 120.611 296.191 122.506C296.191 124.391 295.967 126.129 295.518 127.721C295.078 129.303 294.336 130.597 293.291 131.603C292.256 132.599 290.884 133.097 289.175 133.097ZM289.102 130.123C290.156 130.123 290.967 129.757 291.533 129.024C292.1 128.282 292.476 127.359 292.661 126.256C292.847 125.143 292.939 123.873 292.939 122.447C292.939 121.002 292.842 119.732 292.646 118.639C292.451 117.545 292.061 116.642 291.475 115.929C290.889 115.206 290.054 114.845 288.97 114.845C287.866 114.845 287.021 115.211 286.436 115.943C285.859 116.666 285.479 117.574 285.293 118.668C285.117 119.752 285.029 121.017 285.029 122.462C285.029 123.907 285.122 125.177 285.308 126.271C285.493 127.364 285.884 128.282 286.479 129.024C287.085 129.757 287.959 130.123 289.102 130.123Z" fill="black"/>
<path d="M68.6536 310.754C96.2087 289.595 161.357 254.659 201.509 284.182C251.699 321.086 273.841 399.323 328.46 355.038C383.078 310.754 396.364 269.42 418.506 254.658C440.649 239.897 493.791 275.324 523.314 293.039C546.933 307.211 593.516 270.405 606.802 254.658" stroke="#FF6B6B" stroke-width="3" stroke-linecap="round"/>
<path d="M201.509 284.182C161.357 254.659 96.2087 289.595 68.6536 310.754V430.669H601.605L607.925 254.658C594.639 270.405 546.933 307.211 523.314 293.039C493.791 275.324 440.649 239.897 418.506 254.658C396.364 269.42 383.078 310.754 328.46 355.038C273.841 399.323 251.699 321.086 201.509 284.182Z" fill="url(#paint1_linear_34_3694)"/>
<path d="M64.4336 400.088C95.4384 361.468 163.331 291.387 220.772 320.107C292.572 356.008 326.841 307.053 351.318 287.471C375.796 267.889 393.746 267.888 432.91 287.471C472.074 307.053 532.451 209.143 560.192 225.461C582.385 238.516 600.992 215.28 608.063 201.138" stroke="#6C60FE" stroke-width="3" stroke-linecap="round"/>
<g filter="url(#filter1_d_34_3694)">
<circle cx="364.534" cy="278.239" r="14.2073" fill="#6C60FE"/>
<circle cx="364.534" cy="278.239" r="11.2073" stroke="white" stroke-width="6"/>
</g>
<path fill-rule="evenodd" clip-rule="evenodd" d="M316.747 193.927C311.224 193.927 306.747 198.404 306.747 203.927V233.719C306.747 239.242 311.224 243.719 316.747 243.719H354.223L361.687 256.646C362.841 258.646 365.728 258.646 366.883 256.646L374.346 243.719H408.322C413.845 243.719 418.322 239.242 418.322 233.719V203.927C418.322 198.404 413.845 193.927 408.322 193.927H316.747Z" fill="#F7F7FF"/>
<path d="M337.904 222.485C337.904 223.177 337.74 223.789 337.411 224.322C337.083 224.855 336.632 225.28 336.058 225.597C335.49 225.907 334.848 226.092 334.133 226.15V228.321L333.351 228.339V226.159C332.654 226.118 332.003 225.957 331.4 225.676C330.796 225.389 330.286 224.984 329.87 224.463C329.46 223.941 329.197 223.32 329.079 222.6L330.951 222.125C331.033 222.834 331.288 223.388 331.716 223.786C332.15 224.179 332.695 224.407 333.351 224.472V220.323C332.601 220.03 331.997 219.758 331.54 219.506C331.083 219.254 330.691 218.908 330.363 218.469C330.04 218.023 329.879 217.464 329.879 216.79C329.879 216.14 330.031 215.568 330.336 215.076C330.647 214.584 331.066 214.2 331.593 213.925C332.12 213.649 332.706 213.494 333.351 213.459V211.455H334.133V213.477C334.813 213.547 335.422 213.755 335.961 214.101C336.506 214.446 336.957 214.936 337.315 215.568L335.75 216.535C335.563 216.178 335.331 215.885 335.056 215.656C334.781 215.428 334.473 215.272 334.133 215.19V218.732C334.965 219.055 335.621 219.342 336.102 219.594C336.588 219.846 337.01 220.209 337.367 220.684C337.725 221.152 337.904 221.753 337.904 222.485ZM331.769 216.693C331.769 217.086 331.904 217.414 332.173 217.678C332.448 217.941 332.841 218.185 333.351 218.407V215.138C332.888 215.185 332.507 215.352 332.208 215.639C331.915 215.92 331.769 216.271 331.769 216.693ZM334.133 224.463C334.719 224.398 335.179 224.199 335.513 223.865C335.847 223.531 336.014 223.127 336.014 222.652C336.014 222.178 335.853 221.791 335.531 221.492C335.208 221.188 334.742 220.903 334.133 220.64V224.463ZM345.489 213.617V226.036H343.634V217.019H340.663V215.577H342.465C342.875 215.577 343.183 215.489 343.388 215.313C343.599 215.138 343.704 214.859 343.704 214.479V213.617H345.489ZM354.286 217.581C355.042 217.581 355.737 217.771 356.369 218.152C357.008 218.533 357.512 219.052 357.881 219.708C358.256 220.358 358.444 221.067 358.444 221.835C358.444 222.608 358.241 223.332 357.837 224.006C357.433 224.674 356.888 225.207 356.202 225.605C355.517 226.004 354.776 226.203 353.979 226.203C353.264 226.203 352.599 226.042 351.984 225.72C351.374 225.392 350.859 224.946 350.437 224.384C350.021 223.821 349.737 223.191 349.584 222.494L351.342 222.011C351.489 222.72 351.781 223.312 352.221 223.786C352.66 224.255 353.246 224.489 353.979 224.489C354.459 224.489 354.893 224.366 355.28 224.12C355.666 223.868 355.968 223.537 356.185 223.127C356.407 222.717 356.519 222.28 356.519 221.817C356.519 221.349 356.416 220.921 356.211 220.534C356.012 220.147 355.722 219.843 355.341 219.62C354.96 219.392 354.518 219.277 354.014 219.277C353.563 219.277 353.129 219.392 352.713 219.62C352.297 219.843 351.957 220.153 351.694 220.552L349.953 220.104L351.14 213.617H357.872V215.357H352.634L352.098 218.231C352.795 217.798 353.525 217.581 354.286 217.581ZM361.836 223.716H363.919L361.652 228.734H360.43L361.836 223.716ZM370.212 217.581C370.968 217.581 371.662 217.771 372.295 218.152C372.934 218.533 373.438 219.052 373.807 219.708C374.182 220.358 374.369 221.067 374.369 221.835C374.369 222.608 374.167 223.332 373.763 224.006C373.359 224.674 372.814 225.207 372.128 225.605C371.443 226.004 370.701 226.203 369.905 226.203C369.19 226.203 368.525 226.042 367.909 225.72C367.3 225.392 366.784 224.946 366.363 224.384C365.947 223.821 365.662 223.191 365.51 222.494L367.268 222.011C367.414 222.72 367.707 223.312 368.147 223.786C368.586 224.255 369.172 224.489 369.905 224.489C370.385 224.489 370.819 224.366 371.205 224.12C371.592 223.868 371.894 223.537 372.111 223.127C372.333 222.717 372.445 222.28 372.445 221.817C372.445 221.349 372.342 220.921 372.137 220.534C371.938 220.147 371.648 219.843 371.267 219.62C370.886 219.392 370.444 219.277 369.94 219.277C369.489 219.277 369.055 219.392 368.639 219.62C368.223 219.843 367.883 220.153 367.619 220.552L365.879 220.104L367.066 213.617H373.798V215.357H368.56L368.024 218.231C368.721 217.798 369.45 217.581 370.212 217.581ZM381.664 217.924C382.244 218.094 382.766 218.375 383.229 218.768C383.692 219.16 384.055 219.632 384.319 220.183C384.588 220.728 384.723 221.313 384.723 221.94C384.723 222.708 384.524 223.42 384.125 224.076C383.733 224.727 383.197 225.245 382.517 225.632C381.843 226.013 381.108 226.203 380.311 226.203C379.508 226.203 378.767 226.013 378.087 225.632C377.413 225.245 376.877 224.727 376.479 224.076C376.08 223.426 375.881 222.72 375.881 221.958C375.881 221.179 376.107 220.42 376.558 219.682L380.276 213.617H382.429L379.836 217.783C380.059 217.754 380.261 217.739 380.443 217.739C380.865 217.739 381.272 217.801 381.664 217.924ZM380.311 224.445C380.78 224.445 381.21 224.334 381.603 224.111C381.995 223.883 382.306 223.575 382.534 223.188C382.763 222.802 382.877 222.383 382.877 221.932C382.877 221.48 382.763 221.064 382.534 220.684C382.306 220.297 381.995 219.992 381.603 219.77C381.21 219.541 380.78 219.427 380.311 219.427C379.842 219.427 379.408 219.541 379.01 219.77C378.617 219.992 378.304 220.297 378.07 220.684C377.841 221.07 377.727 221.489 377.727 221.94C377.727 222.392 377.841 222.811 378.07 223.197C378.304 223.578 378.617 223.883 379.01 224.111C379.408 224.334 379.842 224.445 380.311 224.445ZM390.699 226.203C389.024 226.203 387.881 225.579 387.272 224.331C386.662 223.077 386.358 221.574 386.358 219.822C386.358 218.064 386.651 216.562 387.237 215.313C387.828 214.06 388.942 213.433 390.576 213.433C391.625 213.433 392.472 213.737 393.116 214.347C393.761 214.95 394.221 215.735 394.496 216.702C394.772 217.663 394.909 218.712 394.909 219.849C394.909 220.979 394.775 222.022 394.505 222.978C394.241 223.927 393.796 224.703 393.169 225.307C392.548 225.904 391.725 226.203 390.699 226.203ZM390.656 224.419C391.288 224.419 391.775 224.199 392.115 223.76C392.454 223.314 392.68 222.761 392.791 222.099C392.903 221.431 392.958 220.669 392.958 219.813C392.958 218.946 392.9 218.185 392.782 217.528C392.665 216.872 392.431 216.33 392.079 215.902C391.728 215.469 391.227 215.252 390.576 215.252C389.914 215.252 389.407 215.472 389.056 215.911C388.71 216.345 388.482 216.89 388.37 217.546C388.265 218.196 388.212 218.955 388.212 219.822C388.212 220.689 388.268 221.451 388.379 222.107C388.49 222.764 388.725 223.314 389.082 223.76C389.446 224.199 389.97 224.419 390.656 224.419Z" fill="black"/>
<g filter="url(#filter2_d_34_3694)">
<rect x="478.301" y="186.081" width="280.409" height="244.588" rx="10" fill="white"/>
</g>
<path d="M618.013 405.881C656.248 403.412 685.411 370.973 684.086 332.938C684.045 331.769 683.037 330.866 681.869 330.942L613.458 335.36L542.937 339.914C545.452 378.862 579.065 408.397 618.013 405.881Z" fill="#FECA57"/>
<path d="M617.431 396.878C581.534 399.196 550.169 374.288 543.506 339.878L542.937 339.914C545.452 378.862 579.065 408.397 618.013 405.881C656.248 403.412 685.411 370.973 684.086 332.938C684.065 332.338 683.788 331.809 683.366 331.445C680.904 366.153 653.122 394.573 617.431 396.878Z" fill="#F4B537"/>
<path d="M542.935 339.915L613.456 335.36L649.408 276.982C650.021 275.986 649.698 274.674 648.685 274.091C637.03 267.375 623.332 263.907 608.902 264.839C569.954 267.354 540.419 300.967 542.935 339.915Z" fill="#6C60FE"/>
<path d="M610.601 323.733C609.564 325.417 607.775 326.493 605.803 326.62L542.938 330.68C542.74 333.716 542.734 336.798 542.935 339.915L613.456 335.36L649.408 276.982C650.021 275.986 649.698 274.674 648.685 274.091C646.835 273.025 644.934 272.042 642.988 271.144L610.601 323.733Z" fill="#6256F2"/>
<path d="M663.62 273.813L635.053 320.2C634.167 321.638 635.274 323.478 636.96 323.369L691.323 319.858C692.492 319.783 693.379 318.757 693.263 317.591C691.404 298.905 681.173 282.932 666.56 273.179C665.575 272.522 664.241 272.804 663.62 273.813Z" fill="#FF6B6B"/>
<path d="M690.734 310.735L638.817 314.087L635.053 320.2C634.167 321.638 635.274 323.478 636.96 323.369L691.323 319.858C692.492 319.783 693.379 318.757 693.263 317.591C693.011 315.058 692.6 312.577 692.051 310.152C691.707 310.484 691.248 310.701 690.734 310.735Z" fill="#EE5253"/>
<path d="M509.263 225.173C508.45 225.173 507.691 225.023 506.988 224.724C506.285 224.424 505.696 223.985 505.22 223.405C504.745 222.819 504.439 222.116 504.302 221.296L506.002 220.866C506.119 221.765 506.474 222.451 507.066 222.927C507.665 223.402 508.407 223.64 509.293 223.64C509.859 223.64 510.354 223.539 510.777 223.337C511.207 223.135 511.536 222.858 511.763 222.507C511.991 222.155 512.105 221.758 512.105 221.315C512.105 220.827 511.965 220.414 511.685 220.075C511.405 219.737 511.06 219.463 510.65 219.255C510.24 219.04 509.68 218.793 508.97 218.513C508.137 218.187 507.47 217.888 506.969 217.614C506.467 217.341 506.038 216.966 505.679 216.491C505.328 216.009 505.152 215.407 505.152 214.685C505.152 213.955 505.331 213.317 505.689 212.771C506.047 212.224 506.532 211.804 507.144 211.511C507.763 211.218 508.443 211.071 509.185 211.071C510.058 211.071 510.832 211.26 511.51 211.638C512.193 212.009 512.753 212.582 513.189 213.356L511.763 214.235C511.177 213.148 510.299 212.604 509.127 212.604C508.704 212.604 508.319 212.692 507.974 212.868C507.636 213.037 507.366 213.275 507.164 213.581C506.969 213.881 506.871 214.222 506.871 214.606C506.871 215.036 507.001 215.401 507.261 215.7C507.522 215.993 507.844 216.237 508.228 216.433C508.619 216.628 509.153 216.856 509.83 217.116C510.689 217.448 511.383 217.757 511.91 218.044C512.437 218.33 512.886 218.731 513.258 219.245C513.635 219.753 513.824 220.394 513.824 221.169C513.824 221.963 513.622 222.663 513.219 223.269C512.821 223.874 512.274 224.343 511.578 224.675C510.888 225.007 510.116 225.173 509.263 225.173ZM515.972 215.28H517.681V217.038C517.994 216.433 518.44 215.961 519.019 215.622C519.605 215.284 520.247 215.114 520.943 215.114C521.796 215.114 522.535 215.342 523.16 215.798C523.785 216.247 524.26 216.856 524.586 217.624C524.918 218.386 525.084 219.232 525.084 220.163C525.084 221.094 524.918 221.944 524.586 222.712C524.26 223.474 523.782 224.079 523.15 224.528C522.525 224.978 521.78 225.202 520.914 225.202C520.217 225.202 519.582 225.036 519.01 224.704C518.437 224.366 517.994 223.89 517.681 223.278V229.079H515.972V215.28ZM520.543 223.698C521.161 223.698 521.685 223.545 522.115 223.239C522.551 222.927 522.877 222.504 523.092 221.97C523.313 221.436 523.424 220.834 523.424 220.163C523.424 219.493 523.313 218.894 523.092 218.366C522.877 217.832 522.551 217.412 522.115 217.106C521.685 216.8 521.161 216.647 520.543 216.647C519.924 216.647 519.387 216.8 518.931 217.106C518.476 217.406 518.127 217.823 517.886 218.356C517.652 218.884 517.535 219.486 517.535 220.163C517.535 220.834 517.655 221.439 517.896 221.979C518.137 222.513 518.482 222.933 518.931 223.239C519.387 223.545 519.924 223.698 520.543 223.698ZM531.461 225.202C530.465 225.202 529.615 224.981 528.912 224.538C528.209 224.095 527.678 223.496 527.32 222.741C526.962 221.979 526.783 221.133 526.783 220.202C526.783 219.284 526.955 218.438 527.301 217.663C527.646 216.888 528.157 216.27 528.834 215.808C529.517 215.345 530.338 215.114 531.295 215.114C532.317 215.114 533.15 215.349 533.795 215.817C534.446 216.286 534.914 216.875 535.201 217.585C535.487 218.288 535.631 219.011 535.631 219.753C535.631 219.929 535.621 220.104 535.601 220.28C535.588 220.45 535.572 220.573 535.552 220.651H528.531C528.596 221.608 528.876 222.357 529.371 222.897C529.872 223.431 530.572 223.698 531.47 223.698C532.017 223.698 532.502 223.61 532.926 223.435C533.349 223.252 533.759 222.95 534.156 222.526L535.308 223.532C534.768 224.112 534.189 224.535 533.57 224.802C532.958 225.069 532.255 225.202 531.461 225.202ZM533.99 219.44C533.99 219.16 533.977 218.955 533.951 218.825C533.892 218.402 533.752 218.018 533.531 217.673C533.316 217.321 533.017 217.041 532.633 216.833C532.255 216.618 531.806 216.511 531.285 216.511C530.484 216.511 529.849 216.778 529.381 217.312C528.912 217.839 528.629 218.549 528.531 219.44H533.99ZM538.062 215.28H539.713V216.765C540.038 216.224 540.465 215.814 540.992 215.534C541.519 215.254 542.089 215.114 542.701 215.114C543.463 215.114 544.097 215.287 544.605 215.632C545.12 215.97 545.5 216.429 545.748 217.009C546.002 217.588 546.135 218.239 546.148 218.962V225.036H544.498V219.265C544.498 218.444 544.306 217.803 543.922 217.341C543.538 216.879 542.981 216.647 542.252 216.647C541.457 216.647 540.836 216.885 540.386 217.36C539.937 217.829 539.713 218.513 539.713 219.411V225.036H538.062V215.28ZM552.681 225.202C551.816 225.202 551.057 224.978 550.406 224.528C549.755 224.073 549.254 223.461 548.902 222.692C548.551 221.924 548.375 221.078 548.375 220.153C548.375 219.235 548.547 218.392 548.892 217.624C549.244 216.856 549.742 216.247 550.386 215.798C551.038 215.342 551.793 215.114 552.652 215.114C553.349 215.114 553.987 215.284 554.566 215.622C555.152 215.961 555.601 216.433 555.914 217.038V211.237H557.594V225.036H556.051L555.982 223.19C555.67 223.828 555.217 224.323 554.625 224.675C554.039 225.026 553.391 225.202 552.681 225.202ZM553.072 223.698C553.691 223.698 554.224 223.545 554.674 223.239C555.123 222.933 555.465 222.513 555.699 221.979C555.933 221.439 556.051 220.83 556.051 220.153C556.051 219.483 555.933 218.881 555.699 218.347C555.465 217.806 555.123 217.383 554.674 217.077C554.224 216.771 553.691 216.618 553.072 216.618C552.454 216.618 551.916 216.774 551.461 217.087C551.005 217.393 550.657 217.816 550.416 218.356C550.175 218.89 550.054 219.489 550.054 220.153C550.054 220.824 550.175 221.429 550.416 221.97C550.657 222.504 551.005 222.927 551.461 223.239C551.916 223.545 552.454 223.698 553.072 223.698ZM560.855 211.237H562.584V213.308H560.855V211.237ZM560.894 215.28H562.545V225.036H560.894V215.28ZM565.816 215.28H567.467V216.765C567.792 216.224 568.219 215.814 568.746 215.534C569.273 215.254 569.843 215.114 570.455 215.114C571.217 215.114 571.851 215.287 572.359 215.632C572.873 215.97 573.254 216.429 573.502 217.009C573.756 217.588 573.889 218.239 573.902 218.962V225.036H572.252V219.265C572.252 218.444 572.06 217.803 571.676 217.341C571.291 216.879 570.735 216.647 570.006 216.647C569.211 216.647 568.59 216.885 568.14 217.36C567.691 217.829 567.467 218.513 567.467 219.411V225.036H565.816V215.28ZM580.836 223.747C581.682 223.871 582.369 224.011 582.896 224.167C583.43 224.317 583.879 224.577 584.244 224.948C584.608 225.319 584.791 225.837 584.791 226.501C584.791 227.152 584.612 227.709 584.254 228.171C583.902 228.633 583.414 228.981 582.789 229.216C582.164 229.45 581.448 229.567 580.64 229.567C579.703 229.567 578.896 229.424 578.219 229.138C577.548 228.851 577.037 228.454 576.685 227.946C576.334 227.445 576.158 226.866 576.158 226.208C576.158 226.052 576.168 225.909 576.187 225.778L577.535 224.577C576.76 224.174 576.373 223.545 576.373 222.692C576.373 222.282 576.457 221.921 576.627 221.608C576.796 221.296 577.047 221.016 577.379 220.769C577.112 220.469 576.907 220.131 576.763 219.753C576.62 219.375 576.549 218.972 576.549 218.542C576.549 217.884 576.718 217.295 577.056 216.774C577.395 216.254 577.854 215.847 578.433 215.554C579.013 215.261 579.651 215.114 580.347 215.114C580.803 215.114 581.236 215.179 581.646 215.31C582.056 215.433 582.427 215.612 582.76 215.847L584.146 214.646L585.006 215.72L583.668 216.833C583.993 217.36 584.156 217.959 584.156 218.63C584.156 219.3 583.99 219.893 583.658 220.407C583.326 220.922 582.873 221.319 582.301 221.599C581.728 221.879 581.093 222.019 580.396 222.019C579.667 222.019 579.003 221.866 578.404 221.56C578 221.755 577.799 222.038 577.799 222.409C577.799 222.696 577.906 222.92 578.121 223.083C578.342 223.246 578.625 223.366 578.97 223.444C579.322 223.522 579.83 223.607 580.494 223.698L580.836 223.747ZM580.406 216.403C579.976 216.403 579.599 216.494 579.273 216.677C578.948 216.859 578.697 217.113 578.521 217.438C578.345 217.764 578.258 218.135 578.258 218.552C578.258 218.968 578.342 219.336 578.511 219.655C578.687 219.968 578.935 220.215 579.254 220.397C579.579 220.573 579.96 220.661 580.396 220.661C580.832 220.661 581.21 220.573 581.529 220.397C581.848 220.222 582.092 219.974 582.261 219.655C582.431 219.336 582.515 218.972 582.515 218.562C582.515 218.138 582.431 217.764 582.261 217.438C582.092 217.113 581.848 216.859 581.529 216.677C581.21 216.494 580.836 216.403 580.406 216.403ZM580.631 228.269C581.425 228.269 582.053 228.129 582.515 227.849C582.984 227.569 583.219 227.178 583.219 226.677C583.219 226.338 583.101 226.075 582.867 225.886C582.639 225.697 582.327 225.557 581.929 225.466C581.539 225.375 580.982 225.284 580.26 225.192C580.201 225.186 579.986 225.16 579.615 225.114C579.25 225.069 578.899 225.007 578.56 224.929L577.642 226.13L577.672 226.423C577.769 227.022 578.082 227.478 578.609 227.79C579.143 228.109 579.817 228.269 580.631 228.269Z" fill="black" fill-opacity="0.5"/>
<line x1="477.935" y1="244.834" x2="758.71" y2="244.834" stroke="black" stroke-opacity="0.05"/>
<path d="M580.722 306.244C580.019 306.244 579.381 306.117 578.81 305.863C578.244 305.604 577.792 305.223 577.455 304.72C577.123 304.217 576.957 303.609 576.957 302.896L578.458 302.809C578.458 303.219 578.556 303.573 578.751 303.871C578.947 304.168 579.218 304.398 579.564 304.559C579.911 304.715 580.307 304.793 580.751 304.793C581.161 304.793 581.535 304.725 581.872 304.588C582.213 304.447 582.484 304.239 582.685 303.966C582.885 303.688 582.985 303.355 582.985 302.97C582.985 302.481 582.851 302.115 582.582 301.871C582.318 301.622 581.994 301.463 581.608 301.395C581.227 301.322 580.773 301.285 580.246 301.285V300.069C580.792 300.069 581.225 300.016 581.542 299.908C581.859 299.796 582.084 299.632 582.216 299.417C582.353 299.203 582.421 298.924 582.421 298.583C582.421 298.265 582.348 297.994 582.201 297.77C582.055 297.545 581.852 297.374 581.593 297.257C581.334 297.14 581.042 297.081 580.714 297.081C580.182 297.081 579.752 297.228 579.425 297.521C579.103 297.813 578.939 298.211 578.935 298.714L577.448 298.619C577.448 298.009 577.592 297.477 577.88 297.022C578.173 296.568 578.566 296.222 579.059 295.982C579.552 295.738 580.097 295.616 580.692 295.616C581.269 295.616 581.803 295.731 582.296 295.96C582.794 296.185 583.19 296.507 583.483 296.927C583.781 297.347 583.93 297.835 583.93 298.392C583.93 298.89 583.795 299.327 583.527 299.703C583.263 300.079 582.87 300.37 582.348 300.575C583.041 300.741 583.571 301.043 583.937 301.483C584.303 301.922 584.486 302.459 584.486 303.094C584.486 303.753 584.315 304.32 583.974 304.793C583.637 305.267 583.183 305.628 582.611 305.877C582.04 306.122 581.41 306.244 580.722 306.244ZM589.606 299.059C590.236 299.059 590.814 299.217 591.342 299.535C591.874 299.852 592.294 300.284 592.602 300.831C592.914 301.373 593.07 301.964 593.07 302.604C593.07 303.248 592.902 303.851 592.565 304.413C592.228 304.969 591.774 305.414 591.203 305.746C590.631 306.078 590.014 306.244 589.35 306.244C588.754 306.244 588.2 306.109 587.687 305.841C587.179 305.567 586.75 305.196 586.398 304.728C586.051 304.259 585.814 303.734 585.688 303.153L587.152 302.75C587.274 303.341 587.519 303.834 587.885 304.229C588.251 304.62 588.739 304.815 589.35 304.815C589.75 304.815 590.111 304.713 590.434 304.508C590.756 304.298 591.007 304.022 591.188 303.68C591.374 303.338 591.466 302.975 591.466 302.589C591.466 302.198 591.381 301.842 591.21 301.52C591.044 301.197 590.802 300.943 590.485 300.758C590.167 300.567 589.799 300.472 589.379 300.472C589.003 300.472 588.642 300.567 588.295 300.758C587.948 300.943 587.665 301.202 587.445 301.534L585.995 301.161L586.984 295.755H592.594V297.206H588.229L587.782 299.601C588.363 299.239 588.971 299.059 589.606 299.059ZM596.535 300.362C596.115 300.362 595.746 300.257 595.429 300.047C595.116 299.837 594.875 299.552 594.704 299.19C594.533 298.824 594.447 298.421 594.447 297.982C594.447 297.547 594.53 297.149 594.696 296.788C594.862 296.427 595.099 296.141 595.407 295.931C595.719 295.721 596.081 295.616 596.491 295.616C596.881 295.616 597.233 295.721 597.545 295.931C597.863 296.136 598.109 296.419 598.285 296.781C598.466 297.142 598.556 297.547 598.556 297.997C598.556 298.441 598.468 298.844 598.292 299.205C598.117 299.562 597.875 299.845 597.567 300.055C597.26 300.26 596.916 300.362 596.535 300.362ZM601.574 295.755H602.65L596.549 306.104H595.473L601.574 295.755ZM596.535 299.337C596.725 299.337 596.896 299.281 597.047 299.168C597.199 299.051 597.316 298.893 597.399 298.692C597.487 298.487 597.531 298.255 597.531 297.997C597.531 297.601 597.436 297.276 597.245 297.022C597.06 296.769 596.808 296.642 596.491 296.642C596.168 296.642 595.917 296.769 595.736 297.022C595.561 297.271 595.473 297.591 595.473 297.982C595.473 298.377 595.565 298.702 595.751 298.956C595.937 299.21 596.198 299.337 596.535 299.337ZM601.647 306.244C601.227 306.244 600.858 306.139 600.541 305.929C600.229 305.719 599.987 305.433 599.816 305.072C599.645 304.706 599.56 304.303 599.56 303.863C599.56 303.429 599.643 303.031 599.809 302.669C599.975 302.308 600.211 302.022 600.519 301.812C600.832 301.603 601.193 301.498 601.603 301.498C601.994 301.498 602.345 301.603 602.658 301.812C602.975 302.018 603.222 302.301 603.397 302.662C603.578 303.023 603.668 303.429 603.668 303.878C603.668 304.322 603.581 304.725 603.405 305.086C603.229 305.443 602.987 305.726 602.68 305.936C602.372 306.141 602.028 306.244 601.647 306.244ZM601.647 305.218C601.837 305.218 602.008 305.162 602.16 305.05C602.311 304.933 602.428 304.774 602.511 304.574C602.599 304.369 602.643 304.137 602.643 303.878C602.643 303.482 602.548 303.158 602.357 302.904C602.172 302.65 601.92 302.523 601.603 302.523C601.281 302.523 601.029 302.65 600.849 302.904C600.673 303.153 600.585 303.473 600.585 303.863C600.585 304.259 600.678 304.583 600.863 304.837C601.049 305.091 601.31 305.218 601.647 305.218Z" fill="white"/>
<path d="M606.217 361.199C606.847 361.199 607.426 361.358 607.953 361.675C608.485 361.993 608.905 362.425 609.213 362.972C609.525 363.514 609.682 364.104 609.682 364.744C609.682 365.389 609.513 365.992 609.176 366.553C608.839 367.11 608.385 367.554 607.814 367.886C607.243 368.218 606.625 368.384 605.961 368.384C605.365 368.384 604.811 368.25 604.298 367.981C603.791 367.708 603.361 367.337 603.009 366.868C602.663 366.399 602.426 365.875 602.299 365.293L603.764 364.891C603.886 365.481 604.13 365.975 604.496 366.37C604.862 366.761 605.351 366.956 605.961 366.956C606.361 366.956 606.723 366.854 607.045 366.648C607.367 366.438 607.619 366.163 607.799 365.821C607.985 365.479 608.078 365.115 608.078 364.729C608.078 364.339 607.992 363.982 607.821 363.66C607.655 363.338 607.414 363.084 607.096 362.898C606.779 362.708 606.41 362.613 605.99 362.613C605.614 362.613 605.253 362.708 604.906 362.898C604.56 363.084 604.276 363.343 604.057 363.675L602.607 363.301L603.595 357.896H609.206V359.346H604.84L604.394 361.741C604.975 361.38 605.583 361.199 606.217 361.199ZM614.816 361.199C615.446 361.199 616.024 361.358 616.552 361.675C617.084 361.993 617.504 362.425 617.812 362.972C618.124 363.514 618.28 364.104 618.28 364.744C618.28 365.389 618.112 365.992 617.775 366.553C617.438 367.11 616.984 367.554 616.413 367.886C615.841 368.218 615.224 368.384 614.56 368.384C613.964 368.384 613.41 368.25 612.897 367.981C612.389 367.708 611.96 367.337 611.608 366.868C611.261 366.399 611.024 365.875 610.898 365.293L612.362 364.891C612.484 365.481 612.729 365.975 613.095 366.37C613.461 366.761 613.949 366.956 614.56 366.956C614.96 366.956 615.321 366.854 615.644 366.648C615.966 366.438 616.217 366.163 616.398 365.821C616.584 365.479 616.676 365.115 616.676 364.729C616.676 364.339 616.591 363.982 616.42 363.66C616.254 363.338 616.012 363.084 615.695 362.898C615.378 362.708 615.009 362.613 614.589 362.613C614.213 362.613 613.852 362.708 613.505 362.898C613.158 363.084 612.875 363.343 612.655 363.675L611.205 363.301L612.194 357.896H617.804V359.346H613.439L612.992 361.741C613.573 361.38 614.181 361.199 614.816 361.199ZM621.745 362.503C621.325 362.503 620.956 362.398 620.639 362.188C620.326 361.978 620.085 361.692 619.914 361.331C619.743 360.965 619.657 360.562 619.657 360.123C619.657 359.688 619.74 359.29 619.906 358.929C620.072 358.567 620.309 358.282 620.617 358.072C620.929 357.862 621.291 357.757 621.701 357.757C622.091 357.757 622.443 357.862 622.755 358.072C623.073 358.277 623.319 358.56 623.495 358.921C623.676 359.283 623.766 359.688 623.766 360.137C623.766 360.582 623.678 360.984 623.503 361.346C623.327 361.702 623.085 361.985 622.777 362.195C622.47 362.4 622.126 362.503 621.745 362.503ZM626.784 357.896H627.86L621.759 368.245H620.683L626.784 357.896ZM621.745 361.478C621.935 361.478 622.106 361.421 622.257 361.309C622.409 361.192 622.526 361.033 622.609 360.833C622.697 360.628 622.741 360.396 622.741 360.137C622.741 359.742 622.646 359.417 622.455 359.163C622.27 358.909 622.018 358.782 621.701 358.782C621.378 358.782 621.127 358.909 620.946 359.163C620.771 359.412 620.683 359.732 620.683 360.123C620.683 360.518 620.775 360.843 620.961 361.097C621.147 361.351 621.408 361.478 621.745 361.478ZM626.857 368.384C626.437 368.384 626.068 368.279 625.751 368.069C625.439 367.859 625.197 367.574 625.026 367.212C624.855 366.846 624.77 366.443 624.77 366.004C624.77 365.569 624.853 365.171 625.019 364.81C625.185 364.449 625.421 364.163 625.729 363.953C626.042 363.743 626.403 363.638 626.813 363.638C627.204 363.638 627.555 363.743 627.868 363.953C628.185 364.158 628.432 364.441 628.607 364.803C628.788 365.164 628.878 365.569 628.878 366.019C628.878 366.463 628.791 366.866 628.615 367.227C628.439 367.583 628.197 367.867 627.89 368.077C627.582 368.282 627.238 368.384 626.857 368.384ZM626.857 367.359C627.047 367.359 627.218 367.303 627.37 367.19C627.521 367.073 627.638 366.915 627.721 366.714C627.809 366.509 627.853 366.277 627.853 366.019C627.853 365.623 627.758 365.298 627.567 365.044C627.382 364.791 627.13 364.664 626.813 364.664C626.491 364.664 626.239 364.791 626.059 365.044C625.883 365.293 625.795 365.613 625.795 366.004C625.795 366.399 625.888 366.724 626.073 366.978C626.259 367.232 626.52 367.359 626.857 367.359Z" fill="white"/>
<path d="M659.397 294.008V304.357H657.851V296.843H655.376V295.642H656.877C657.219 295.642 657.475 295.568 657.646 295.422C657.822 295.275 657.91 295.043 657.91 294.726V294.008H659.397ZM666.728 297.312C667.358 297.312 667.937 297.47 668.464 297.788C668.996 298.105 669.416 298.537 669.724 299.084C670.036 299.626 670.193 300.217 670.193 300.856C670.193 301.501 670.024 302.104 669.687 302.666C669.35 303.222 668.896 303.667 668.325 303.999C667.754 304.331 667.136 304.497 666.472 304.497C665.876 304.497 665.322 304.362 664.809 304.094C664.302 303.82 663.872 303.449 663.52 302.98C663.174 302.512 662.937 301.987 662.81 301.406L664.275 301.003C664.397 301.594 664.641 302.087 665.007 302.482C665.373 302.873 665.862 303.068 666.472 303.068C666.872 303.068 667.234 302.966 667.556 302.761C667.878 302.551 668.13 302.275 668.31 301.933C668.496 301.591 668.589 301.228 668.589 300.842C668.589 300.451 668.503 300.095 668.332 299.772C668.166 299.45 667.925 299.196 667.607 299.011C667.29 298.82 666.921 298.725 666.501 298.725C666.125 298.725 665.764 298.82 665.417 299.011C665.071 299.196 664.787 299.455 664.568 299.787L663.117 299.414L664.106 294.008H669.717V295.458H665.351L664.905 297.854C665.486 297.492 666.094 297.312 666.728 297.312ZM673.657 298.615C673.237 298.615 672.868 298.51 672.551 298.3C672.239 298.09 671.997 297.805 671.826 297.443C671.655 297.077 671.57 296.674 671.57 296.235C671.57 295.8 671.653 295.402 671.819 295.041C671.985 294.68 672.221 294.394 672.529 294.184C672.842 293.974 673.203 293.869 673.613 293.869C674.004 293.869 674.355 293.974 674.668 294.184C674.985 294.389 675.232 294.672 675.407 295.034C675.588 295.395 675.678 295.8 675.678 296.25C675.678 296.694 675.591 297.097 675.415 297.458C675.239 297.814 674.997 298.098 674.69 298.308C674.382 298.513 674.038 298.615 673.657 298.615ZM678.696 294.008H679.773L673.672 304.357H672.595L678.696 294.008ZM673.657 297.59C673.847 297.59 674.018 297.534 674.17 297.421C674.321 297.304 674.438 297.146 674.521 296.945C674.609 296.74 674.653 296.508 674.653 296.25C674.653 295.854 674.558 295.529 674.367 295.275C674.182 295.021 673.93 294.895 673.613 294.895C673.291 294.895 673.039 295.021 672.859 295.275C672.683 295.524 672.595 295.844 672.595 296.235C672.595 296.63 672.688 296.955 672.873 297.209C673.059 297.463 673.32 297.59 673.657 297.59ZM678.769 304.497C678.349 304.497 677.981 304.392 677.663 304.182C677.351 303.972 677.109 303.686 676.938 303.325C676.767 302.958 676.682 302.556 676.682 302.116C676.682 301.682 676.765 301.284 676.931 300.922C677.097 300.561 677.334 300.275 677.641 300.065C677.954 299.855 678.315 299.75 678.725 299.75C679.116 299.75 679.468 299.855 679.78 300.065C680.097 300.271 680.344 300.554 680.52 300.915C680.7 301.276 680.791 301.682 680.791 302.131C680.791 302.575 680.703 302.978 680.527 303.339C680.351 303.696 680.11 303.979 679.802 304.189C679.494 304.394 679.15 304.497 678.769 304.497ZM678.769 303.471C678.96 303.471 679.131 303.415 679.282 303.303C679.433 303.186 679.551 303.027 679.634 302.827C679.721 302.622 679.765 302.39 679.765 302.131C679.765 301.735 679.67 301.411 679.48 301.157C679.294 300.903 679.043 300.776 678.725 300.776C678.403 300.776 678.152 300.903 677.971 301.157C677.795 301.406 677.707 301.726 677.707 302.116C677.707 302.512 677.8 302.836 677.986 303.09C678.171 303.344 678.432 303.471 678.769 303.471Z" fill="white"/>
<circle cx="541.152" cy="68.8184" r="5" fill="#C4C4C4" fill-opacity="0.5"/>
<circle cx="563.331" cy="68.8184" r="5" fill="#C4C4C4" fill-opacity="0.5"/>
<circle cx="585.51" cy="68.8184" r="5" fill="#C4C4C4" fill-opacity="0.5"/>
<defs>
<filter id="filter0_d_34_3694" x="0.728027" y="0.285156" width="665.306" height="517.72" filterUnits="userSpaceOnUse" color-interpolation-filters="sRGB">
<feFlood flood-opacity="0" result="BackgroundImageFix"/>
<feColorMatrix in="SourceAlpha" type="matrix" values="0 0 0 0 0 0 0 0 0 0 0 0 0 0 0 0 0 0 127 0" result="hardAlpha"/>
<feOffset dx="6" dy="8"/>
<feGaussianBlur stdDeviation="6.5"/>
<feColorMatrix type="matrix" values="0 0 0 0 0.575 0 0 0 0 0.556792 0 0 0 0 0.556792 0 0 0 0.05 0"/>
<feBlend mode="normal" in2="BackgroundImageFix" result="effect1_dropShadow_34_3694"/>
<feBlend mode="normal" in="SourceGraphic" in2="effect1_dropShadow_34_3694" result="shape"/>
</filter>
<filter id="filter1_d_34_3694" x="343.327" y="259.031" width="46.4146" height="46.4146" filterUnits="userSpaceOnUse" color-interpolation-filters="sRGB">
<feFlood flood-opacity="0" result="BackgroundImageFix"/>
<feColorMatrix in="SourceAlpha" type="matrix" values="0 0 0 0 0 0 0 0 0 0 0 0 0 0 0 0 0 0 127 0" result="hardAlpha"/>
<feOffset dx="2" dy="4"/>
<feGaussianBlur stdDeviation="4.5"/>
<feColorMatrix type="matrix" values="0 0 0 0 0.423182 0 0 0 0 0.375097 0 0 0 0 0.995833 0 0 0 0.2 0"/>
<feBlend mode="normal" in2="BackgroundImageFix" result="effect1_dropShadow_34_3694"/>
<feBlend mode="normal" in="SourceGraphic" in2="effect1_dropShadow_34_3694" result="shape"/>
</filter>
<filter id="filter2_d_34_3694" x="467.301" y="174.081" width="312.409" height="276.588" filterUnits="userSpaceOnUse" color-interpolation-filters="sRGB">
<feFlood flood-opacity="0" result="BackgroundImageFix"/>
<feColorMatrix in="SourceAlpha" type="matrix" values="0 0 0 0 0 0 0 0 0 0 0 0 0 0 0 0 0 0 127 0" result="hardAlpha"/>
<feOffset dx="5" dy="4"/>
<feGaussianBlur stdDeviation="8"/>
<feColorMatrix type="matrix" values="0 0 0 0 0 0 0 0 0 0 0 0 0 0 0 0 0 0 0.05 0"/>
<feBlend mode="normal" in2="BackgroundImageFix" result="effect1_dropShadow_34_3694"/>
<feBlend mode="normal" in="SourceGraphic" in2="effect1_dropShadow_34_3694" result="shape"/>
</filter>
<linearGradient id="paint0_linear_34_3694" x1="277.718" y1="201.127" x2="336.791" y2="444.874" gradientUnits="userSpaceOnUse">
<stop stop-color="#6C60FE" stop-opacity="0.53"/>
<stop offset="0.738652" stop-color="white" stop-opacity="0"/>
</linearGradient>
<linearGradient id="paint1_linear_34_3694" x1="330.518" y1="-50.7129" x2="335.129" y2="398.196" gradientUnits="userSpaceOnUse">
<stop stop-color="#FF6B6B"/>
<stop offset="1" stop-color="white" stop-opacity="0"/>
</linearGradient>
</defs>
</svg>
